<?xml version="1.0" encoding="UTF-8" standalone="no"?>
<!-- Created with Inkscape (http://www.inkscape.org/) -->
<svg id="svg3240" xmlns:rdf="http://www.w3.org/1999/02/22-rdf-syntax-ns#" xmlns="http://www.w3.org/2000/svg" viewBox="0 0 246.66 195.65" version="1.1" xmlns:cc="http://creativecommons.org/ns#" xmlns:dc="http://purl.org/dc/elements/1.1/">
 <defs id="defs3242"></defs>
 <metadata id="metadata3245">
  <rdf:RDF>
   <cc:Work rdf:about="">
    <dc:format>image/svg+xml</dc:format>
    <dc:type rdf:resource="http://purl.org/dc/dcmitype/StillImage"/>
    <dc:title/>
   </cc:Work>
  </rdf:RDF>
 </metadata>
 <g id="layer1" transform="translate(-290.95775,-780.25331)">
  <text id="text3066-8" style="letter-spacing:0px;word-spacing:0px;" font-weight="normal" xml:space="preserve" font-size="32px" font-style="normal" y="933.89539" x="456.92224" font-family="Sans" line-height="125%" fill="#3a743a"><tspan id="tspan3068-5" x="456.92224" y="933.89539">ani</tspan></text>
  <path id="path3936-4-2" d="m374.82,884.01c-2.8744,0.84191-5.7554,2.0706-8.5625,3.7812-21.251,12.95-25.969,31.031-25.969,31.031s9.9613,13.693,34.969,7.9688c12.919-2.9571,21.541-9.9035,27.219-17,1.642-11.088,7.5635-19.336,7.75-19.594l-0.5-0.625c-6.2718,0.67148-20.705,1.2143-34.906-5.5625z" fill="#e79900"/>
  <path id="path3936-9-15" d="m356.76,833.16s-11.355,18.881,4.2188,35.312c17.765,18.743,42.222,18.029,50.844,17.094-1.0967-1.4003-13.266-17.444-11.125-37.188-1.2671-1.0234-2.6289-2.0064-4.125-2.9062-21.326-12.826-39.812-12.312-39.812-12.312zm57.344,51.906c-0.22449,0.0996-0.49744,0.23388-0.6875,0.3125,0.43187-0.0604,0.42294-0.051,0.6875-0.0937v-0.21875z" fill="#e79900"/>
  <path id="path3936-92" d="m432.73,807.24c-5.105,0.0672-13.813,3.3669-23.844,20.562-16.049,27.513,5.75,54.469,5.75,54.469s0.35314-0.14398,0.46875-0.1875c3.3122-4.7201,12.86-16.562,27.844-21.156,2.7187-4.0968,4.7499-8.8427,5.5-14.219,3.4391-24.647-10.906-38.406-10.906-38.406s-1.7495-1.1028-4.8125-1.0625z" fill="#e79900"/>
  <path id="path3936-7-9" d="m416.33,889.49s32.753,6.0444,39.081,37.261c6.3289,31.217-4.8414,32.186-4.8414,32.186s-23.146-5.4615-36.981-26.148c-13.834-20.686,2.7408-43.299,2.7408-43.299z" fill="#3a743a"/>
  <text id="text3218-48" style="letter-spacing:0px;word-spacing:0px;" font-weight="normal" xml:space="preserve" font-size="32px" font-style="normal" y="865.7525" x="322.20795" font-family="Sans" line-height="125%" fill="#3a743a"><tspan id="tspan3220-9" x="322.20795" y="865.7525">ra</tspan></text>
  <text id="text3222-1" style="letter-spacing:0px;word-spacing:0px;" font-weight="normal" xml:space="preserve" font-size="32px" font-style="normal" y="865.89539" x="357.27936" font-family="Sans" line-height="125%" fill="#3a743a"><tspan id="tspan3224-2" x="357.27936" y="865.89539">ng</tspan></text>
  <text id="text3226-6" style="letter-spacing:0px;word-spacing:0px;" font-weight="normal" xml:space="preserve" font-size="32px" font-style="normal" y="869.39532" x="411.13647" font-family="Sans" line-height="125%" fill="#3a743a"><tspan id="tspan3228-2" x="411.13647" y="869.39532">i</tspan></text>
  <path id="path4027-2" d="m373.72,946.49,0.24153-4.9915c-15.769-0.6355-31.507-5.9913-44.627-15.175-9.8622-6.8965-18.19-16.037-24.294-26.401-6.0986-10.363-9.9896-21.99-10.944-33.852v-0.00001c-0.96956-12.053,0.97355-24.366,6.0465-35.465,5.6034-12.279,15.019-22.988,26.555-30.804l0.00001-0.00001c11.537-7.8179,25.161-12.762,39.092-14.582,13.143-1.7159,26.628-0.66506,39.022,3.4841,7.9811,2.6714,15.495,6.6113,22.183,11.628-6.6048-5.1248-14.068-9.2001-22.041-12.015-12.384-4.3718-25.954-5.6645-39.268-4.1406-14.113,1.6129-28.021,6.4016-39.937,14.197-11.917,7.7964-21.761,18.619-27.772,31.221-5.4273,11.396-7.6653,24.093-6.8595,36.615v0.00002c0.79409,12.341,4.6226,24.492,10.803,35.399,6.1776,10.912,14.719,20.62,24.982,28.075,13.638,9.8976,30.087,15.842,46.818,16.809z" fill-rule="evenodd" fill="#3a743a"/>
  <path id="path4043-9" d="m450.72,958.96,0.41424-4.9828c-8.5448-0.61008-16.958-3.8983-23.689-9.2941-6.7342-5.392-11.825-12.923-14.319-21.245-3.5468-11.78-1.7282-25.215,4.7873-35.811,4.9511-8.0634,12.546-14.541,21.324-18.273,10.315-4.405,22.101-4.9828,33.333-3.1487h0.00002c5.1801,0.86444,10.355,2.2398,14.554,5.2277,2.1008,1.4893,3.9446,3.3628,5.244,5.5703l0.00001,0.00001c1.2982,2.2054,2.0589,4.7547,2.0064,7.3076v0.00001c-0.0512,3.0024-1.231,5.9573-3.0002,8.4516-1.7721,2.4964-4.1345,4.558-6.6774,6.3318-7.1049,4.9502-15.768,7.6976-24.485,7.7312,8.716,0.15286,17.494-2.4079,24.8-7.2688,2.6168-1.7389,5.0756-3.7969,6.9769-6.3472,1.9036-2.5515,3.207-5.6339,3.3455-8.8695v-0.00001c0.10885-2.7524-0.63767-5.505-1.9862-7.9004,0-0.00001-0.00001-0.00001-0.00001-0.00001-1.3475-2.3936-3.2623-4.4365-5.461-6.0602-4.3996-3.2378-9.757-4.8223-15.034-5.7908h-0.00001c-11.423-2.1373-23.574-1.7961-34.524,2.5656-9.3169,3.7277-17.481,10.372-22.962,18.87,0,0.00001,0,0.00001-0.00001,0.00001-7.2117,11.197-9.5059,25.504-5.9269,38.475,2.5318,9.1376,7.8873,17.473,15.203,23.6,7.319,6.1227,16.514,9.966,26.075,10.861z" fill-rule="evenodd" fill="#3a743a"/>
  <path id="path4049-4" d="m405.08,780.25,2.8566,2.4477c24.15,3.3651,44.871,14.386,66.874,27.337,18.605,10.974,35.64,25.279,46.77,43.112v0.00001c11.111,17.806,16.082,39.398,11.319,59.235-2.8347,11.897-9.0372,22.953-17.375,32.019-8.3395,9.068-18.806,16.168-30.195,21.05h-0.00002c-17.12,7.345-36.151,9.6363-54.904,9.1991-16.949-0.402-33.943-3.0002-49.895-8.8482-14.269-5.2301-27.624-13.047-39.239-22.964,11.502,10.052,24.79,18.045,39.058,23.464,15.951,6.0573,33.008,8.8786,50.048,9.4781,18.855,0.6708,38.098-1.4219,55.629-8.679h0.00002c11.662-4.8326,22.446-11.962,31.141-21.178,8.6956-9.2179,15.241-20.546,18.362-32.876,5.1728-20.585,0.42022-42.996-10.898-61.566-11.308-18.558-28.614-33.513-47.561-44.934-22.369-13.51-47.25-22.541-71.989-26.296z" fill-rule="evenodd" fill="#3a743a"/>
  <path id="path4075-2" d="m302.64,897.19,0.0352,4.9999c11.574-0.47621,22.919-3.6498,32.919-9.1238,11.158-6.1092,20.594-15.071,27.194-25.676-7.3304,10.114-17.237,18.205-28.38,23.32-9.9868,4.5865-20.968,6.798-31.769,6.4792z" fill-rule="evenodd" fill="#3a743a"/>
  <text id="text4281-3" style="letter-spacing:0px;word-spacing:0px;" font-weight="normal" xml:space="preserve" font-size="13px" font-style="normal" y="825.3241" x="325.77936" font-family="Sans" line-height="125%" fill="#3a743a"><tspan id="tspan4283-28" x="325.77936" y="825.3241">balinese spa</tspan></text>
 </g>
</svg>
