<?xml version="1.0" encoding="UTF-8" standalone="no"?>
<!-- Created with Inkscape (http://www.inkscape.org/) -->

<svg
   xmlns:dc="http://purl.org/dc/elements/1.1/"
   xmlns:cc="http://creativecommons.org/ns#"
   xmlns:rdf="http://www.w3.org/1999/02/22-rdf-syntax-ns#"
   xmlns:svg="http://www.w3.org/2000/svg"
   xmlns="http://www.w3.org/2000/svg"
   xmlns:sodipodi="http://sodipodi.sourceforge.net/DTD/sodipodi-0.dtd"
   xmlns:inkscape="http://www.inkscape.org/namespaces/inkscape"
   width="116.72756"
   height="116.21149"
   id="svg18259"
   version="1.1"
   inkscape:version="0.48.4 r"
   sodipodi:docname="lavender-flower.svg">
  <defs
     id="defs18261">
    <inkscape:path-effect
       effect="skeletal"
       id="path-effect18288"
       is_visible="true"
       pattern="M 0,0 0,10 10,5 z"
       copytype="single_stretched"
       prop_scale="1"
       scale_y_rel="false"
       spacing="0"
       normal_offset="0"
       tang_offset="0"
       prop_units="false"
       vertical_pattern="false"
       fuse_tolerance="0" />
    <inkscape:path-effect
       effect="spiro"
       id="path-effect18286"
       is_visible="true" />
  </defs>
  <sodipodi:namedview
     id="base"
     pagecolor="#ffffff"
     bordercolor="#666666"
     borderopacity="1.0"
     inkscape:pageopacity="0.0"
     inkscape:pageshadow="2"
     inkscape:zoom="1"
     inkscape:cx="54.637948"
     inkscape:cy="45.089525"
     inkscape:document-units="px"
     inkscape:current-layer="layer1"
     showgrid="false"
     showborder="false"
     inkscape:window-width="1440"
     inkscape:window-height="878"
     inkscape:window-x="1912"
     inkscape:window-y="-8"
     inkscape:window-maximized="1"
     fit-margin-top="0"
     fit-margin-left="0"
     fit-margin-right="0"
     fit-margin-bottom="0" />
  <metadata
     id="metadata18264">
    <rdf:RDF>
      <cc:Work
         rdf:about="">
        <dc:format>image/svg+xml</dc:format>
        <dc:type
           rdf:resource="http://purl.org/dc/dcmitype/StillImage" />
        <dc:title></dc:title>
      </cc:Work>
    </rdf:RDF>
  </metadata>
  <g
     inkscape:label="Layer 1"
     inkscape:groupmode="layer"
     id="layer1"
     transform="translate(-564.55973,-651.4037)">
    <g
       id="g19155">
      <path
         id="path18284"
         d="m 588.5625,663.65625 c -4.69179,-0.27134 -5.46576,3.38067 -3.15625,11 0.13701,1.20277 1.09877,3.2074 2.125,5.09375 -2.51238,-0.75561 -4.70645,-1.29072 -6.40625,-1.34375 -10.54913,0.24987 -11.61365,4.01629 -4.875,12.21875 1.31391,2.36638 8.07473,6.92813 8,7.09375 13.08243,8.13695 21.56306,8.57423 36.53125,9.21875 -0.26497,-0.34387 -0.46786,-0.60943 -0.71875,-0.9375 -3.23177,-12.12357 -3.41825,-15.42206 -5.28125,-19.21875 C 610.41241,677.87774 604,672.34375 604,672.34375 c -3.77568,-3.32344 -6.89724,-5.99063 -9.40625,-7.125 -2.45974,-0.95333 -4.46732,-1.47205 -6.03125,-1.5625 z"
         style="fill:#37388b;fill-opacity:1;fill-rule:evenodd;stroke:none"
         inkscape:connector-curvature="0" />
      <path
         id="path18284-5-2"
         d="m 600.1875,680.71875 c -2.19393,0.20547 -2.50183,2.37004 -1.25,6.5 0.0912,0.80101 0.81666,2.21547 1.5,3.4375 -1.56406,-0.47752 -2.92293,-0.81113 -3.96875,-0.84375 -6.23784,0.14776 -6.85965,2.36852 -2.875,7.21875 0.77693,1.39929 4.76293,4.08957 4.71875,4.1875 7.73582,4.81149 12.74284,5.08762 21.59375,5.46875 -0.14331,-0.18598 -0.20742,-0.29059 -0.34375,-0.46875 -2.04583,-7.59591 -2.09109,-9.54566 -3.21875,-11.84375 -2.58336,-5.26476 -6.375,-8.5 -6.375,-8.5 -2.23261,-1.9652 -4.11013,-3.54798 -5.59375,-4.21875 -1.8181,-0.70464 -3.19026,-1.0309 -4.1875,-0.9375 z"
         style="fill:#675fa6;fill-opacity:1;fill-rule:evenodd;stroke:none"
         inkscape:connector-curvature="0" />
      <path
         id="path18284-2"
         d="m 594.96875,705.46875 c -8.15687,0.12143 -14.28125,2.28125 -14.28125,2.28125 -4.75909,1.62853 -8.61376,3.04099 -10.84375,4.65625 -8.19347,6.64932 -6.75421,10.28784 3.59375,12.65625 1.10944,0.47678 3.35788,0.64182 5.5,0.6875 -1.90129,1.80489 -3.45464,3.42645 -4.34375,4.875 -5.01842,9.28235 -2.27783,12.092 8.1875,10.3125 2.70647,0.0337 10.0183,-3.58457 10.125,-3.4375 13.55677,-7.31943 18.16825,-14.45007 26.15625,-27.125 -0.43469,0.06 -0.77396,0.1007 -1.1875,0.15625 -12.13034,-3.2113 -15.09161,-4.7019 -19.3125,-4.96875 -1.23723,-0.0782 -2.42848,-0.1111 -3.59375,-0.0937 z"
         style="fill:#675fa6;fill-opacity:1;fill-rule:evenodd;stroke:none"
         inkscape:connector-curvature="0" />
      <path
         id="path18284-5-2-9"
         d="m 603.8125,707.9375 c -4.82327,0.0718 -8.4375,1.375 -8.4375,1.375 -2.81411,0.96297 -5.08762,1.79487 -6.40625,2.75 -4.84491,3.93184 -3.99389,6.06827 2.125,7.46875 0.74147,0.31865 2.31763,0.39315 3.71875,0.40625 -1.19028,1.12047 -2.14032,2.13976 -2.6875,3.03125 -2.96745,5.48878 -1.37579,7.14598 4.8125,6.09375 1.60039,0.0199 5.93691,-2.1182 6,-2.03125 8.01631,-4.32807 10.74532,-8.53639 15.46875,-16.03125 -0.22593,0.0312 -0.34626,0.0334 -0.5625,0.0625 -7.60979,-1.9936 -9.3515,-2.90099 -11.90625,-3.0625 -0.73159,-0.0462 -1.43596,-0.0728 -2.125,-0.0625 z"
         style="fill:#def5ff;fill-opacity:1;fill-rule:evenodd;stroke:none"
         inkscape:connector-curvature="0" />
      <path
         id="path18284-7"
         d="m 623.09375,712.78125 c -0.1655,0.38265 -0.3097,0.66703 -0.46875,1.03125 -9.07615,8.744 -11.85916,10.49268 -14.28125,13.96875 -5.66986,8.13707 -7.40625,16.4375 -7.40625,16.4375 -1.0767,4.91342 -1.88026,8.9431 -1.65625,11.6875 1.43388,10.45421 5.29437,11.08657 12.6875,3.46875 0.98453,-0.7021 2.28596,-2.53369 3.4375,-4.34375 0.5567,2.5621 1.1603,4.73826 1.9375,6.25 5.33204,9.10581 9.1233,8.24504 13.03125,-1.625 1.43289,-2.29629 2.16267,-10.45384 2.34375,-10.46875 0.77563,-15.38696 -2.93319,-23.0017 -9.625,-36.40625 z"
         style="fill:#37388b;fill-opacity:1;fill-rule:evenodd;stroke:none"
         inkscape:connector-curvature="0" />
      <path
         id="path18284-5-2-99"
         d="m 623.28125,713.65625 c -0.0987,0.22827 -0.15515,0.34532 -0.25,0.5625 -0.002,-0.0217 0.002,-0.0407 0,-0.0625 -5.65219,5.47139 -7.31781,6.49347 -8.78125,8.59375 -3.35266,4.81156 -4.375,9.6875 -4.375,9.6875 -0.63668,2.90538 -1.10121,5.31469 -0.96875,6.9375 0.8479,6.18172 3.12833,6.56702 7.5,2.0625 0.65155,-0.46464 1.5468,-1.78562 2.28125,-2.96875 0.33934,1.5909 0.71099,2.94815 1.1875,3.875 3.15292,5.38439 5.40791,4.86754 7.71875,-0.96875 0.8473,-1.35783 1.26793,-6.17867 1.375,-6.1875 0.45864,-9.09851 -1.73055,-13.60494 -5.6875,-21.53125 z"
         style="fill:#675fa6;fill-opacity:1;fill-rule:evenodd;stroke:none"
         inkscape:connector-curvature="0" />
      <path
         id="path18284-8"
         d="m 626.90625,712.53125 c 0.26485,0.34396 0.46797,0.60935 0.71875,0.9375 3.22773,12.12465 3.38827,15.42145 5.25,19.21875 4.36588,8.90497 10.78125,14.4375 10.78125,14.4375 3.77457,3.32469 6.92887,5.98979 9.4375,7.125 9.83769,3.81659 12.26346,0.75388 9.1875,-9.40625 -0.1368,-1.20446 -1.12911,-3.23613 -2.15625,-5.125 2.52448,0.76128 4.70001,1.28996 6.40625,1.34375 10.54921,-0.24635 11.64217,-3.98279 4.90625,-12.1875 -1.31312,-2.36681 -8.07478,-6.9594 -8,-7.125 -13.07972,-8.14131 -21.56328,-8.56924 -36.53125,-9.21875 z"
         style="fill:#675fa6;fill-opacity:1;fill-rule:evenodd;stroke:none"
         inkscape:connector-curvature="0" />
      <path
         id="path18284-5-2-4"
         d="m 627.75,712.78125 c 0.13656,0.17735 0.21353,0.26727 0.34375,0.4375 0.006,0.008 -0.006,0.0236 0,0.0312 2.03407,7.56747 2.12485,9.51758 3.25,11.8125 2.58161,5.26562 6.375,8.53125 6.375,8.53125 2.23195,1.96595 4.0791,3.54749 5.5625,4.21875 5.81716,2.25679 7.25635,0.44533 5.4375,-5.5625 -0.091,-0.80104 -0.78582,-2.21524 -1.46875,-3.4375 1.5639,0.47804 2.92294,0.81078 3.96875,0.84375 6.23789,-0.14568 6.85804,-2.36719 2.875,-7.21875 -0.77646,-1.39955 -4.79421,-4.08958 -4.75,-4.1875 -7.73421,-4.81407 -12.74296,-5.08467 -21.59375,-5.46875 z"
         style="fill:#def5ff;fill-opacity:1;fill-rule:evenodd;stroke:none"
         inkscape:connector-curvature="0" />
      <path
         id="path18284-82"
         d="m 667.03125,676.6875 c -1.41652,0.0726 -3.08895,0.34626 -5.03125,0.78125 -2.70457,0.10673 -9.82331,4.07884 -9.9375,3.9375 -13.15885,8.01276 -17.39895,15.39654 -24.71875,28.46875 0.44469,-0.0851 0.79629,-0.13956 1.21875,-0.21875 12.25615,2.57375 15.27429,3.88998 19.5,3.9375 9.91699,0.11155 17.71875,-3.125 17.71875,-3.125 4.6682,-1.87319 8.45054,-3.45875 10.59375,-5.1875 7.83754,-7.06537 6.20688,-10.64028 -4.25,-12.46875 -1.13261,-0.41857 -3.35851,-0.44048 -5.5,-0.375 1.80847,-1.9041 3.24867,-3.63034 4.0625,-5.125 3.68078,-7.74325 2.48201,-10.93953 -3.65625,-10.625 z"
         style="fill:#37388b;fill-opacity:1;fill-rule:evenodd;stroke:none"
         inkscape:connector-curvature="0" />
      <path
         id="path18284-5-2-2"
         d="m 651.4375,689.59375 c -0.83761,0.0429 -1.82024,0.21154 -2.96875,0.46875 -1.59927,0.0631 -5.83873,2.39607 -5.90625,2.3125 -7.78101,4.73806 -10.26543,9.11396 -14.59375,16.84375 0.25166,-0.0482 0.38539,-0.08 0.625,-0.125 7.64219,1.58639 9.41703,2.44006 11.96875,2.46875 5.86405,0.066 10.5,-1.875 10.5,-1.875 2.76038,-1.10764 4.98269,-2.04026 6.25,-3.0625 4.63444,-4.17787 3.6833,-6.29379 -2.5,-7.375 -0.75063,-0.27741 -2.32741,-0.27694 -3.71875,-0.21875 1.12338,-1.17428 2.00201,-2.24164 2.5,-3.15625 2.17648,-4.57869 1.47338,-6.46723 -2.15625,-6.28125 z"
         style="fill:#675fa6;fill-opacity:1;fill-rule:evenodd;stroke:none"
         inkscape:connector-curvature="0" />
      <path
         id="path18284-76"
         d="m 621.90625,651.40625 c -2.26246,0.0954 -4.22409,2.84677 -6.125,8.15625 -1.35588,2.34258 -1.81951,10.51033 -2,10.53125 -0.26445,15.40422 3.71068,22.91872 10.84375,36.09375 0.16181,-0.41105 0.28224,-0.73485 0.4375,-1.125 8.75244,-9.00847 11.51028,-10.82528 13.8125,-14.375 5.39664,-8.32079 6.8125,-16.65625 6.8125,-16.65625 0.91301,-4.94645 1.59623,-9.01454 1.28125,-11.75 -1.78011,-10.40085 -5.64505,-10.92153 -12.78125,-3.0625 -0.95963,0.73358 -2.19131,2.62343 -3.28125,4.46875 -0.64279,-2.55026 -1.32737,-4.69892 -2.15625,-6.1875 -2.6397,-4.18303 -4.84746,-6.1779 -6.84375,-6.09375 z"
         style="fill:#675fa6;fill-opacity:1;fill-rule:evenodd;stroke:none"
         inkscape:connector-curvature="0" />
      <path
         id="path18284-5-2-7"
         d="m 622.5625,672.9375 c -1.23968,0.22814 -2.31708,1.85761 -3.375,4.8125 -0.80176,1.3852 -1.08078,6.20638 -1.1875,6.21875 -0.15637,9.10873 2.18838,13.55316 6.40625,21.34375 0.0846,-0.21491 0.13718,-0.32602 0.21875,-0.53125 5.46746,-5.65599 7.10708,-6.7273 8.5,-8.875 3.19109,-4.9202 4.03125,-9.84375 4.03125,-9.84375 0.53988,-2.9249 0.93625,-5.31998 0.75,-6.9375 -1.05262,-6.15016 -3.34276,-6.45965 -7.5625,-1.8125 -0.63577,0.486 -1.46148,1.82439 -2.15625,3.03125 -0.39217,-1.58003 -0.83644,-2.90143 -1.34375,-3.8125 -1.66495,-2.63838 -3.04157,-3.82189 -4.28125,-3.59375 z"
         style="fill:#def5ff;fill-opacity:1;fill-rule:evenodd;stroke:none"
         inkscape:connector-curvature="0" />
      <path
         transform="matrix(1.2325581,0,0,1.2325581,-145.01294,-165.98192)"
         d="m 629.07251,710.55182 c 0,2.99867 -2.4309,5.42957 -5.42957,5.42957 -2.99866,0 -5.42957,-2.4309 -5.42957,-5.42957 0,-2.99867 2.43091,-5.42957 5.42957,-5.42957 2.99867,0 5.42957,2.4309 5.42957,5.42957 z"
         sodipodi:ry="5.4295697"
         sodipodi:rx="5.4295697"
         sodipodi:cy="710.55182"
         sodipodi:cx="623.64294"
         id="path19117"
         style="fill:#a7c19e;fill-opacity:1;fill-rule:evenodd;stroke:none"
         sodipodi:type="arc" />
    </g>
  </g>
</svg>
